<svg class="icon" style="width: 1em;height: 1em;vertical-align: middle;fill: currentColor;overflow: hidden;" viewBox="0 0 1024 1024" version="1.1" xmlns="http://www.w3.org/2000/svg" p-id="7384"><path d="M173.824 712.192c33.792 0 58.624 22.528 58.624 54.016 0 19.968-9.728 29.696-18.944 35.584 9.984 6.912 20.992 17.92 20.992 39.68 0 38.144-28.672 56.064-60.672 56.064-29.0048 0-58.24-14.848-60.5184-52.3008l-0.1536-4.7872h41.984c0 12.8 8.192 19.2 18.688 19.2 11.008 0 18.688-6.4 18.688-19.456a18.6368 18.6368 0 0 0-16.7168-19.0208l-2.7392-0.1792h-5.888v-36.352h5.888c12.544 0 17.408-8.96 17.408-17.152 0-11.52-7.936-17.408-16.64-17.408a16.1024 16.1024 0 0 0-16.4608 14.2592l-0.1792 2.8928H115.2c0-34.304 26.112-55.04 58.624-55.04zM934.4 780.8a12.8 12.8 0 0 1 12.8 12.8v76.8a12.8 12.8 0 0 1-12.8 12.8h-588.8a12.8 12.8 0 0 1-12.8-12.8v-76.8a12.8 12.8 0 0 1 12.8-12.8h588.8zM174.848 404.992c33.792 0 58.368 20.736 58.368 55.04 0 17.6128-6.656 27.648-19.0208 41.0624L167.168 550.912h66.048V588.8H115.968v-37.888l66.048-71.68c6.656-7.168 9.216-11.776 9.216-19.456 0-9.984-5.632-16.896-16.384-16.896-7.0912 0-15.488 3.072-16.7424 14.592l-0.1536 3.072H115.968c0-35.84 27.136-55.552 58.88-55.552zM934.4 460.8a12.8 12.8 0 0 1 12.8 12.8v76.8a12.8 12.8 0 0 1-12.8 12.8h-588.8a12.8 12.8 0 0 1-12.8-12.8v-76.8a12.8 12.8 0 0 1 12.8-12.8h588.8zM206.336 99.328V281.6H164.352V144.128L125.44 177.92V133.12l38.912-33.792h41.984zM934.4 153.6a12.8 12.8 0 0 1 12.8 12.8v76.8a12.8 12.8 0 0 1-12.8 12.8h-588.8a12.8 12.8 0 0 1-12.8-12.8v-76.8a12.8 12.8 0 0 1 12.8-12.8h588.8z" fill="#62667A" p-id="7385"></path></svg>